<?xml version="1.0" encoding="UTF-8"?>
<!DOCTYPE svg PUBLIC "-//W3C//DTD SVG 1.1//EN" "http://www.w3.org/Graphics/SVG/1.1/DTD/svg11.dtd">
<svg version="1.1" xmlns="http://www.w3.org/2000/svg" xmlns:xlink="http://www.w3.org/1999/xlink" x="0" y="0" width="432" height="648" viewBox="0, 0, 432, 648">
  <g id="Layer_1">
    <path d="M0,0 L432,0 L432,648 L0,648 L0,0 z" fill="#FFFFFF"/>
    <path d="M0,0 L432,0 L432,648 L0,648 L0,0 z" fill="#000000"/>
    <path d="M216,312 C295.529,312 360,376.471 360,456 C359.726,480.957 353.782,506.505 340.725,528 C353.684,549.677 359.682,574.907 360,600 L216.008,600 L216,600 L215.992,600 L72,600 L72,600 C72.273,575.043 78.218,549.495 91.274,528 C78.317,506.323 72.317,481.093 72,456 C72,376.471 136.471,312 216,312 z" fill="#000000"/>
    <path d="M360,347.232 C340.118,347.232 324,331.114 324,311.232 C324,291.35 340.118,275.232 360,275.232 C379.882,275.232 396,291.35 396,311.232 C396,331.114 379.882,347.232 360,347.232 z" fill="#000000"/>
    <path d="M126,402 C106.118,402 90,385.882 90,366 C90,346.118 106.118,330 126,330 C145.882,330 162,346.118 162,366 C162,385.882 145.882,402 126,402 z" fill="#000000"/>
    <path d="M216,456 L216,420 C275.647,420 324,371.647 324,312 L324,312 L360,312 C360,391.529 295.529,456 216,456 z" fill="#000000"/>
    <path d="M72,36 C96.902,36.38 122.444,42.257 143.878,55.349 C165.586,42.344 190.856,36.318 216,36 C240.954,36.276 266.508,42.213 288,55.275 C309.677,42.316 334.907,36.317 360,36 L360,180 C360,259.529 295.529,324 216,324 C136.471,324 72,259.529 72,180 L72,179.992 L72,36 z" fill="#000000"/>
    <path d="M269.999,162 C272.036,162.025 274.11,162.285 275.999,163.083 C268.617,165.772 264.387,172.297 263.998,180 C264.192,188.154 268.675,193.823 275.999,196.918 C274.142,197.824 272.019,197.898 269.999,198 C260.059,198 252,189.941 252,180 C252,170.059 260.059,162 269.999,162 z M280.158,197.907 L281.998,198 L283.839,197.907 C285.009,197.668 286.209,197.543 287.351,197.191 C294.899,194.862 299.853,187.794 299.998,180 C299.998,170.059 291.939,162 281.998,162 C279.978,162.102 277.856,162.176 275.999,163.083 C283.322,166.177 287.805,171.847 287.998,180 C287.609,187.703 283.38,194.228 275.999,196.917 C277.746,197.656 276.416,197.144 280.158,197.907 z M149.999,162 C140.059,162 132,170.059 132,180 C132,189.941 140.059,198 149.999,198 C152.019,197.898 154.142,197.824 155.999,196.917 C148.675,193.823 144.192,188.154 143.998,180 C144.387,172.297 148.617,165.772 155.999,163.083 C154.11,162.285 152.036,162.025 149.999,162 z M160.158,197.907 L161.998,198 L163.839,197.907 C165.009,197.668 166.209,197.543 167.351,197.191 C174.899,194.862 179.853,187.794 179.998,180 C179.998,170.059 171.939,162 161.998,162 C159.978,162.102 157.856,162.176 155.999,163.083 C163.322,166.177 167.805,171.847 167.998,180 C167.609,187.703 163.38,194.228 155.999,196.917 C157.746,197.656 156.416,197.144 160.158,197.907 z M215.999,228 C211.671,228.218 207.227,229.419 204.071,232.589 L204,234 C204.389,241.703 208.618,248.228 216,250.918 C223.324,247.823 227.807,242.154 228,234 L227.929,232.591 C224.812,229.474 220.303,228.121 215.999,228 z M219,245.634 L213,245.634 L213,261.902 L198.911,270.036 L201.911,275.232 L216,267.098 L230.088,275.232 L233.088,270.036 L219,261.902 L219,245.634 z" fill="#FFFFFF"/>
    <path d="M139.593,580 L135.921,580 L135.921,567.578 Q135.921,566.172 135.794,564.863 Q135.667,563.555 135.257,562.773 Q134.808,561.934 133.968,561.504 Q133.128,561.074 131.546,561.074 Q130.003,561.074 128.46,561.846 Q126.917,562.617 125.374,563.809 Q125.433,564.258 125.472,564.854 Q125.511,565.449 125.511,566.035 L125.511,580 L121.839,580 L121.839,567.578 Q121.839,566.133 121.712,564.834 Q121.585,563.535 121.175,562.754 Q120.726,561.914 119.886,561.494 Q119.046,561.074 117.464,561.074 Q115.96,561.074 114.447,561.816 Q112.933,562.559 111.429,563.711 L111.429,580 L107.757,580 L107.757,558.184 L111.429,558.184 L111.429,560.605 Q113.148,559.18 114.857,558.379 Q116.566,557.578 118.499,557.578 Q120.726,557.578 122.279,558.516 Q123.831,559.453 124.593,561.113 Q126.82,559.238 128.656,558.408 Q130.492,557.578 132.581,557.578 Q136.175,557.578 137.884,559.756 Q139.593,561.934 139.593,565.84 z M159.964,574.629 Q158.597,575.684 156.995,576.436 Q155.394,577.188 153.46,577.188 Q151.136,577.188 150.003,576.24 Q148.87,575.293 148.87,573.418 Q148.87,571.758 149.847,570.811 Q150.824,569.863 152.406,569.414 Q153.734,569.043 156.009,568.848 Q158.285,568.652 159.964,568.555 L159.964,574.629 z M163.617,565.195 Q163.617,563.086 162.972,561.66 Q162.328,560.234 161.097,559.336 Q159.847,558.418 158.138,558.037 Q156.429,557.656 154.124,557.656 Q152.152,557.656 150.12,558.008 Q148.089,558.359 147.015,558.652 L147.015,562.383 L147.21,562.383 Q149.105,561.66 150.882,561.279 Q152.66,560.898 154.105,560.898 Q155.296,560.898 156.39,561.055 Q157.484,561.211 158.265,561.66 Q159.085,562.129 159.525,562.949 Q159.964,563.77 159.964,565.02 L159.964,565.586 Q156.761,565.742 153.968,566.055 Q151.175,566.367 149.183,567.246 Q147.21,568.125 146.146,569.658 Q145.081,571.191 145.081,573.672 Q145.081,576.699 147.132,578.652 Q149.183,580.605 152.132,580.605 Q153.734,580.605 154.925,580.303 Q156.117,580 157.035,579.551 Q157.816,579.199 158.646,578.604 Q159.476,578.008 159.964,577.676 L159.964,580 L163.617,580 z M186.273,573.711 Q186.273,571.328 184.886,569.883 Q183.499,568.457 180.941,567.871 Q180.101,567.676 178.841,567.441 Q177.581,567.207 176.566,566.973 Q174.73,566.543 173.91,565.859 Q173.07,565.176 173.07,563.828 Q173.07,562.305 174.456,561.533 Q175.843,560.762 177.855,560.762 Q179.788,560.762 181.8,561.475 Q183.812,562.188 185.218,563.223 L185.413,563.223 L185.413,559.297 Q184.085,558.613 182.083,558.135 Q180.081,557.656 178.128,557.656 Q176.038,557.656 174.349,558.193 Q172.66,558.73 171.566,559.648 Q170.433,560.586 169.876,561.777 Q169.32,562.969 169.32,564.316 Q169.32,566.465 170.521,567.939 Q171.722,569.414 174.593,570.176 Q175.628,570.449 176.888,570.684 Q178.148,570.918 178.929,571.094 Q181.038,571.562 181.781,572.227 Q182.523,572.891 182.523,574.18 Q182.523,575.859 181.156,576.641 Q179.788,577.422 177.367,577.422 Q175.413,577.422 173.285,576.65 Q171.156,575.879 169.417,574.57 L169.222,574.57 L169.222,578.691 Q170.589,579.375 172.611,579.951 Q174.632,580.527 177.054,580.527 Q181.331,580.527 183.802,578.613 Q186.273,576.699 186.273,573.711 z M207.66,574.59 L207.464,574.59 Q207.054,574.922 206.351,575.381 Q205.648,575.84 204.847,576.25 Q203.929,576.719 202.777,577.012 Q201.624,577.305 200.511,577.305 Q197.308,577.305 195.54,575.186 Q193.773,573.066 193.773,569.121 Q193.773,565.059 195.579,562.959 Q197.386,560.859 200.511,560.859 Q202.21,560.859 203.997,561.562 Q205.785,562.266 207.464,563.574 L207.66,563.574 L207.66,559.492 Q206.156,558.73 204.349,558.203 Q202.542,557.676 200.667,557.676 Q195.843,557.676 192.904,560.723 Q189.964,563.77 189.964,569.121 Q189.964,571.992 190.745,574.141 Q191.527,576.289 192.953,577.695 Q194.359,579.102 196.331,579.795 Q198.304,580.488 200.667,580.488 Q202.523,580.488 204.173,580 Q205.824,579.512 207.66,578.633 z M227.171,569.102 Q227.171,573.242 225.501,575.342 Q223.831,577.441 220.902,577.441 Q217.933,577.441 216.273,575.322 Q214.613,573.203 214.613,569.102 Q214.613,564.863 216.263,562.803 Q217.913,560.742 220.902,560.742 Q223.851,560.742 225.511,562.803 Q227.171,564.863 227.171,569.102 z M230.96,569.102 Q230.96,563.77 228.226,560.674 Q225.492,557.578 220.902,557.578 Q216.273,557.578 213.548,560.674 Q210.824,563.77 210.824,569.102 Q210.824,574.434 213.548,577.52 Q216.273,580.605 220.902,580.605 Q225.492,580.605 228.226,577.52 Q230.96,574.434 230.96,569.102 z M247.972,576.504 L247.777,576.504 Q247.347,576.68 246.37,576.943 Q245.394,577.207 244.495,577.207 Q242.953,577.207 242.201,576.846 Q241.449,576.484 241.019,575.703 Q240.55,574.863 240.472,573.896 Q240.394,572.93 240.394,571.211 L240.394,561.27 L247.972,561.27 L247.972,558.184 L240.394,558.184 L240.394,551.914 L236.722,551.914 L236.722,558.184 L234.242,558.184 L234.242,561.27 L236.722,561.27 L236.722,572.871 Q236.722,576.836 238.46,578.633 Q240.199,580.43 243.538,580.43 Q244.495,580.43 245.716,580.254 Q246.937,580.078 247.972,579.805 z M258.402,574.434 L253.734,574.434 L253.734,580 L258.402,580 z M283.089,574.59 L282.894,574.59 Q282.484,574.922 281.781,575.381 Q281.077,575.84 280.277,576.25 Q279.359,576.719 278.206,577.012 Q277.054,577.305 275.941,577.305 Q272.738,577.305 270.97,575.186 Q269.202,573.066 269.202,569.121 Q269.202,565.059 271.009,562.959 Q272.816,560.859 275.941,560.859 Q277.64,560.859 279.427,561.562 Q281.214,562.266 282.894,563.574 L283.089,563.574 L283.089,559.492 Q281.585,558.73 279.779,558.203 Q277.972,557.676 276.097,557.676 Q271.273,557.676 268.333,560.723 Q265.394,563.77 265.394,569.121 Q265.394,571.992 266.175,574.141 Q266.956,576.289 268.382,577.695 Q269.788,579.102 271.761,579.795 Q273.734,580.488 276.097,580.488 Q277.952,580.488 279.603,580 Q281.253,579.512 283.089,578.633 z M301.097,574.629 Q299.73,575.684 298.128,576.436 Q296.527,577.188 294.593,577.188 Q292.269,577.188 291.136,576.24 Q290.003,575.293 290.003,573.418 Q290.003,571.758 290.98,570.811 Q291.956,569.863 293.538,569.414 Q294.867,569.043 297.142,568.848 Q299.417,568.652 301.097,568.555 L301.097,574.629 z M304.749,565.195 Q304.749,563.086 304.105,561.66 Q303.46,560.234 302.23,559.336 Q300.98,558.418 299.271,558.037 Q297.562,557.656 295.257,557.656 Q293.285,557.656 291.253,558.008 Q289.222,558.359 288.148,558.652 L288.148,562.383 L288.343,562.383 Q290.238,561.66 292.015,561.279 Q293.792,560.898 295.238,560.898 Q296.429,560.898 297.523,561.055 Q298.617,561.211 299.398,561.66 Q300.218,562.129 300.658,562.949 Q301.097,563.77 301.097,565.02 L301.097,565.586 Q297.894,565.742 295.101,566.055 Q292.308,566.367 290.316,567.246 Q288.343,568.125 287.279,569.658 Q286.214,571.191 286.214,573.672 Q286.214,576.699 288.265,578.652 Q290.316,580.605 293.265,580.605 Q294.867,580.605 296.058,580.303 Q297.249,580 298.167,579.551 Q298.949,579.199 299.779,578.604 Q300.609,578.008 301.097,577.676 L301.097,580 L304.749,580 z M323.148,576.504 L322.952,576.504 Q322.523,576.68 321.546,576.943 Q320.57,577.207 319.671,577.207 Q318.128,577.207 317.376,576.846 Q316.624,576.484 316.195,575.703 Q315.726,574.863 315.648,573.896 Q315.57,572.93 315.57,571.211 L315.57,561.27 L323.148,561.27 L323.148,558.184 L315.57,558.184 L315.57,551.914 L311.898,551.914 L311.898,558.184 L309.417,558.184 L309.417,561.27 L311.898,561.27 L311.898,572.871 Q311.898,576.836 313.636,578.633 Q315.374,580.43 318.714,580.43 Q319.671,580.43 320.892,580.254 Q322.113,580.078 323.148,579.805 z" fill="#FFFFFF"/>
    <text transform="matrix(1, 0, 0, 1, 214.056, 570)" display="none">
      <tspan x="-109.912" y="10" font-family="Verdana" font-size="40" fill="#FFFFFF">mascot.cat</tspan>
    </text>
    <path d="M215.957,354 C199.365,354 185.914,340.549 185.914,323.957 C185.914,307.365 199.365,293.914 215.957,293.914 C232.549,293.914 246,307.365 246,323.957 C246,340.549 232.549,354 215.957,354 z" fill="#000000"/>
  </g>
</svg>
